<?xml version="1.0" encoding="utf-8"?>
<!-- Generator: Adobe Illustrator 22.1.0, SVG Export Plug-In . SVG Version: 6.00 Build 0)  -->
<svg version="1.1" id="Layer_1" xmlns="http://www.w3.org/2000/svg" xmlns:xlink="http://www.w3.org/1999/xlink" x="0px" y="0px"
	 viewBox="0 0 86.4 363.6" style="enable-background:new 0 0 86.4 363.6;" xml:space="preserve">
<polygon points="64.6,9.8 64.5,10 64.4,10.2 64.2,10.3 64,10.4 63.9,10.4 63.7,10.4 63.5,10.3 63.4,10.1 63.3,9.9 63.3,9.7 
	63.2,9.6 63,9.5 62.9,9.5 62.8,9.5 62.6,9.6 62.5,9.7 62.5,9.9 62.6,10.4 63,10.8 63.4,11.1 64,11.2 64.2,11.2 64.8,11.1 65.3,10.8 
	65.6,10.4 65.7,9.8 65.7,9.2 65.7,8.8 65.6,8.5 65.5,8.2 65.3,8 65.4,7.8 65.6,7.5 65.7,7.2 65.7,6.8 65.7,6.6 65.6,6 65.2,5.6 
	64.7,5.3 64.2,5.2 63.6,5.3 63.2,5.5 62.8,5.9 62.7,6.5 62.7,6.7 62.8,6.8 63,6.9 63.1,6.9 63.2,6.9 63.4,6.8 63.5,6.7 63.5,6.5 
	63.6,6.3 63.7,6.1 63.9,6 64.1,6 64.3,6 64.5,6.1 64.6,6.3 64.7,6.6 64.7,6.8 64.6,7.3 64.5,7.5 64.2,7.6 63.9,7.6 63.7,7.6 
	63.6,7.7 63.5,7.9 63.5,8 63.5,8.1 63.6,8.3 63.7,8.4 63.9,8.4 64.3,8.4 64.5,8.5 64.6,8.8 64.6,9.2 64.6,9.8 "/>
<polygon points="68,10.4 67.9,10.4 67.7,10.4 67.5,10.3 67.4,10.1 67.3,9.9 67.3,9.7 67.2,9.6 67,9.5 66.9,9.5 66.8,9.5 66.6,9.6 
	66.5,9.7 66.5,9.9 66.6,10.4 67,10.8 67.4,11.1 68,11.2 68.1,11.2 68.7,11.1 69.2,10.8 69.5,10.4 69.6,9.8 69.6,9.2 69.6,8.8 
	69.5,8.5 69.4,8.2 69.2,8 69.3,7.8 69.5,7.5 69.6,7.2 69.6,6.8 69.6,6.6 69.5,6 69.1,5.6 68.6,5.3 68.1,5.2 67.5,5.3 67,5.5 
	66.7,5.9 66.6,6.5 66.6,6.7 66.7,6.8 66.9,6.9 67,6.9 67.1,6.9 67.3,6.8 67.4,6.7 67.4,6.5 67.5,6.3 67.6,6.1 67.8,6 68,6 68.2,6 
	68.4,6.1 68.5,6.3 68.6,6.6 68.6,6.8 68.5,7.3 68.4,7.5 68.1,7.6 67.8,7.6 67.6,7.6 67.5,7.7 67.4,7.9 67.4,8 67.4,8.1 67.5,8.3 
	67.6,8.4 67.8,8.4 68.2,8.4 68.4,8.5 68.6,8.8 68.6,9.2 68.6,9.8 68.5,10 68.4,10.2 68.2,10.3 68,10.4 "/>
<polygon points="30.8,203.2 30.9,203.2 31.2,203.3 31.4,203.4 31.6,203.6 31.7,203.9 31.8,204 31.9,204.1 32,204.2 32.1,204.2 
	32.3,204.2 32.4,204.1 32.5,203.9 32.5,203.8 32.4,203.3 32,202.9 31.5,202.6 30.9,202.5 30.8,202.5 30.2,202.6 29.7,202.9 
	29.3,203.4 29.2,204 29.2,206.6 29.3,207.2 29.7,207.6 30.2,208 30.8,208.1 30.9,208.1 31.5,208 32,207.8 32.4,207.3 32.5,206.8 
	32.5,206.7 32.4,206.5 32.3,206.4 32.1,206.4 32,206.4 31.8,206.5 31.7,206.6 31.7,206.7 31.6,207 31.4,207.2 31.2,207.3 
	30.9,207.4 30.8,207.4 30.5,207.3 30.3,207.1 30.1,206.9 30,206.6 30,204 30.1,203.7 30.3,203.4 30.5,203.3 30.8,203.2 "/>
<polygon points="31.6,240.7 30.9,240.8 30.4,241.2 30,241.7 29.9,242.3 29.9,245 30,245.6 30.4,246.1 31,246.5 31.6,246.6 
	31.7,246.6 32.3,246.5 32.8,246.2 33.2,245.8 33.3,245.2 33.3,245.1 33.2,244.9 33.1,244.8 32.9,244.8 32.8,244.8 32.7,244.9 
	32.6,245 32.5,245.1 32.4,245.4 32.2,245.6 31.9,245.7 31.6,245.8 31.3,245.7 31,245.6 30.9,245.3 30.8,245 30.8,242.3 30.9,242 
	31,241.7 31.3,241.6 31.6,241.5 31.7,241.5 32,241.6 32.2,241.7 32.4,241.9 32.5,242.2 32.6,242.3 32.7,242.4 32.8,242.5 
	32.9,242.5 33.1,242.5 33.2,242.4 33.3,242.3 33.3,242.1 33.2,241.5 32.8,241.1 32.3,240.8 31.7,240.7 31.6,240.7 "/>
<polygon points="65.4,246.6 65.5,246.6 65.7,246.5 65.8,246.4 65.8,246.2 65.8,241.5 66.6,241.5 66.8,241.5 66.9,241.4 67,241.2 
	67,241.1 67,241 66.9,240.8 66.8,240.7 66.6,240.7 64.2,240.7 64,240.7 63.9,240.8 63.8,241 63.8,241.1 63.8,241.2 63.9,241.4 
	64,241.5 64.2,241.5 65,241.5 65,246.2 65,246.4 65.1,246.5 65.3,246.6 65.4,246.6 "/>
<polygon points="72.7,5.6 72.7,5.5 72.6,5.3 72.5,5.2 72.3,5.2 72.2,5.2 72.1,5.2 72,5.3 71.9,5.4 71,7.4 70.4,8.8 70.2,9.4 
	70.3,9.6 70.3,9.8 70.4,9.9 70.6,9.9 72.2,9.9 72.2,10.8 72.2,11 72.3,11.1 72.5,11.2 72.6,11.2 72.7,11.2 72.9,11.1 73,11 73,10.8 
	73,9.9 73.3,9.9 73.5,9.9 73.6,9.8 73.7,9.6 73.7,9.5 73.7,9.4 73.6,9.2 73.5,9.1 73.3,9.1 73,9.1 73,8.5 73,8.3 72.9,8.2 72.7,8.1 
	72.6,8.1 72.5,8.1 72.3,8.2 72.2,8.3 72.2,8.5 72.2,9.1 71.3,9.1 72.7,5.8 72.7,5.6 "/>
<polygon points="70.8,246.7 70.9,246.7 71.1,246.6 71.2,246.5 71.2,246.3 71.2,241.1 71.2,240.9 71.1,240.8 70.9,240.7 70.8,240.7 
	70.7,240.7 70.5,240.8 70.4,240.9 70.4,241.1 70.4,243.2 68.6,243.2 68.6,241.1 68.6,240.9 68.5,240.8 68.3,240.7 68.2,240.7 
	68.1,240.7 67.9,240.8 67.8,240.9 67.8,241.1 67.8,246.3 67.8,246.5 67.9,246.6 68.1,246.7 68.2,246.7 68.3,246.7 68.5,246.6 
	68.6,246.5 68.6,246.3 68.6,244 70.4,244 70.4,246.3 70.4,246.5 70.5,246.6 70.7,246.7 70.8,246.7 "/>
<polygon points="68.4,201.3 68.3,201.2 68.2,201.2 68.1,201.1 68,201.1 68,201 67.9,201 67.8,201 67.6,201.1 67.5,201.3 67.5,201.4 
	67.5,206.6 67.5,206.8 67.6,206.9 67.8,207 67.9,207 68,207 68.2,206.9 68.3,206.8 68.3,206.6 68.3,203 69.3,205.1 69.4,205.2 
	69.5,205.3 69.6,205.4 69.7,205.4 69.8,205.4 69.9,205.3 70,205.2 70.1,205.1 71,203 71,206.7 71,206.9 71.1,207 71.3,207.1 
	71.4,207.1 71.5,207.1 71.7,207 71.8,206.9 71.8,206.7 71.8,201.5 71.8,201.4 71.7,201.2 71.5,201.1 71.4,201.1 71.3,201.1 
	71.2,201.1 71.1,201.1 71,201.2 70.9,201.3 69.7,204.1 68.4,201.3 "/>
<polygon points="63.8,201.1 63.7,201.1 63.5,201.2 63.4,201.4 63.4,201.5 63.4,206.6 63.4,206.8 63.5,206.9 63.7,207 63.8,207 
	63.9,207 64.1,206.9 64.2,206.8 64.2,206.6 64.2,204.3 65.7,204.3 65.9,204.3 66,204.2 66.1,204 66.1,203.9 66.1,203.8 66,203.6 
	65.9,203.5 65.7,203.5 64.2,203.5 64.2,201.9 66.4,201.9 66.6,201.9 66.7,201.8 66.8,201.6 66.8,201.5 66.8,201.4 66.7,201.2 
	66.6,201.1 66.4,201.1 63.8,201.1 "/>
<polygon points="18.6,245.8 18.5,245.8 18.2,245.7 17.9,245.6 17.8,245.3 17.7,245 17.7,244.8 17.6,244.7 17.4,244.6 17.3,244.6 
	17.2,244.6 17,244.7 16.9,244.8 16.9,245 17,245.7 17.4,246.3 18,246.6 18.6,246.7 18.7,246.7 19.4,246.6 19.9,246.3 20.3,245.8 
	20.4,245.1 20,244 19.1,243.3 18.2,242.8 17.8,242.3 17.8,242.1 17.9,241.8 18,241.6 18.3,241.4 18.6,241.4 18.7,241.4 19,241.4 
	19.3,241.5 19.4,241.7 19.5,242 19.5,242.2 19.6,242.3 19.8,242.4 19.9,242.4 20,242.4 20.2,242.3 20.3,242.1 20.3,242 20.3,241.9 
	20.1,241.3 19.8,240.9 19.3,240.7 18.7,240.6 18.6,240.6 18,240.7 17.5,241 17.1,241.5 17,242.1 17,242.3 17.4,243.2 18.2,243.8 
	19.1,244.3 19.5,245 19.4,245.3 19.2,245.6 19,245.7 18.6,245.8 "/>
<polygon points="16.4,206.1 16.5,206.1 16.7,206 16.8,205.9 16.8,205.7 16.8,200.8 16.8,200.7 16.7,200.5 16.6,200.4 16.5,200.4 
	16.2,200.4 16.1,200.4 16,200.4 15.9,200.5 15.8,200.6 15.1,201.6 15.1,201.7 15,201.7 15,201.8 15,201.9 15.1,202.1 15.3,202.2 
	15.4,202.2 15.5,202.2 15.5,202.1 15.6,202.1 15.7,202 16,201.6 16,205.7 16,205.9 16.1,206 16.3,206.1 16.4,206.1 "/>
<polygon points="22.7,246.6 22.8,246.6 23,246.5 23.1,246.4 23.1,246.2 23.1,244.3 24.4,241.2 24.4,241 24.4,240.9 24.3,240.7 
	24.2,240.6 24,240.6 23.9,240.6 23.8,240.7 23.7,240.8 23.6,240.9 22.7,243.2 21.8,240.9 21.7,240.8 21.6,240.7 21.5,240.6 
	21.4,240.6 21.3,240.6 21.1,240.7 21,240.9 21,241 21,241.2 22.3,244.3 22.3,246.2 22.3,246.4 22.4,246.5 22.6,246.6 22.7,246.6 "/>
<polygon points="27.9,241.2 27.9,244.8 26.3,241.1 26.2,240.9 26.1,240.8 26,240.8 25.9,240.8 25.8,240.8 25.7,240.8 25.5,240.9 
	25.4,241.1 25.4,241.2 25.4,246.3 25.4,246.5 25.5,246.6 25.7,246.7 25.8,246.7 25.9,246.7 26.1,246.6 26.2,246.5 26.2,246.3 
	26.2,242.7 27.8,246.4 27.9,246.6 28.1,246.7 28.2,246.7 28.3,246.7 28.4,246.7 28.5,246.7 28.7,246.6 28.8,246.4 28.8,246.3 
	28.8,241.1 28.7,240.9 28.6,240.8 28.5,240.8 28.3,240.8 28.2,240.8 28,240.9 27.9,241 27.9,241.2 "/>
<polygon points="34.2,208.1 34.3,208.1 34.5,208 34.6,207.9 34.6,207.7 34.6,203.3 35.4,203.3 35.6,203.3 35.7,203.2 35.8,203 
	35.8,202.9 35.8,202.8 35.7,202.6 35.6,202.5 35.4,202.5 33.1,202.5 33,202.5 32.8,202.6 32.6,202.9 32.6,203 32.7,203.2 
	32.8,203.3 33,203.3 33.8,203.3 33.8,207.7 33.8,207.9 33.9,208 34.1,208.1 34.2,208.1 "/>
<polygon points="24.5,200.9 24.5,200.8 24.4,200.6 24.3,200.5 24.1,200.5 24,200.5 23.9,200.6 23.8,200.7 23.7,200.8 21.1,207.4 
	21.1,207.6 21.1,207.7 21.2,207.9 21.4,208 21.5,208 21.6,208 21.7,207.9 21.8,207.8 21.9,207.7 24.5,201.1 24.5,200.9 "/>
<polygon points="21.1,200.4 21,200.4 20.8,200.5 20.7,200.6 20.7,200.7 19.8,204.4 18.9,200.7 18.8,200.6 18.7,200.5 18.6,200.4 
	18.5,200.4 18.4,200.4 18.2,200.5 18.2,200.7 18.3,200.8 18.3,200.9 19.5,205.8 19.6,205.9 19.8,206 19.9,206 20,206 20.1,205.9 
	20.2,205.8 20.3,205.7 21.5,200.9 21.5,200.8 21.5,200.7 21.4,200.5 21.2,200.4 21.1,200.4 "/>
<polygon points="53.1,206.2 51.2,206.2 51.2,201.5 51.2,201.3 51.1,201.2 50.9,201.1 50.8,201.1 50.7,201.1 50.5,201.2 50.4,201.3 
	50.4,201.5 50.4,206.6 50.4,206.7 50.5,206.9 50.7,207 50.8,207 53.1,207 53.3,207 53.4,206.9 53.5,206.7 53.5,206.6 53.5,206.5 
	53.4,206.3 53.3,206.2 53.1,206.2 "/>
<polygon points="54.5,201.4 54.5,206.6 54.5,206.8 54.6,206.9 54.8,207 55,207 55.2,206.9 55.3,206.8 55.3,206.6 55.3,201.4 
	55.3,201.2 55.2,201.1 55,201 54.9,201 54.8,201 54.6,201.1 54.5,201.2 54.5,201.4 "/>
<polygon points="53.5,240.7 53.4,240.7 53.2,240.8 53.1,240.9 53,241 52.1,244.7 51.3,241 51.2,240.9 51.1,240.8 51,240.7 
	50.9,240.7 50.8,240.7 50.6,240.8 50.5,241 50.5,241.1 50.5,241.2 51.6,246.3 51.7,246.4 51.8,246.5 52,246.6 52.1,246.6 
	52.2,246.6 52.4,246.5 52.5,246.4 52.6,246.3 53.5,242.5 54.4,246.3 54.5,246.4 54.6,246.5 54.8,246.6 54.9,246.6 55,246.6 
	55.2,246.5 55.3,246.4 55.4,246.3 56.5,241.2 56.5,241.1 56.5,241 56.4,240.8 56.2,240.7 56.1,240.7 56,240.7 55.9,240.8 
	55.8,240.9 55.7,241 54.9,244.7 54,241 53.9,240.9 53.8,240.8 53.6,240.7 53.5,240.7 "/>
<polygon points="52.7,5.2 52.6,5.2 52.5,5.3 52.4,5.4 52.3,5.5 51.4,9.4 50.5,5.5 50.4,5.4 50.3,5.3 50.2,5.2 50.1,5.2 49.9,5.2 
	49.8,5.3 49.7,5.5 49.7,5.6 49.7,5.7 50.9,10.8 51,11 51.1,11.1 51.3,11.2 51.4,11.2 51.5,11.2 51.7,11.1 51.8,10.9 51.9,10.8 
	53.1,5.7 53.1,5.6 53.1,5.5 53,5.3 52.8,5.2 52.7,5.2 "/>
<polygon points="55.6,6 55.7,6 56,6.1 56.2,6.2 56.4,6.4 56.5,6.7 56.6,6.8 56.7,6.9 56.8,7 56.9,7 57.1,7 57.2,6.9 57.3,6.8 
	57.3,6.6 57.2,6 56.8,5.6 56.3,5.3 55.7,5.2 55.6,5.2 54.9,5.3 54.4,5.7 54,6.2 53.9,6.8 53.9,9.5 54,10.1 54.4,10.6 55,11 
	55.6,11.1 55.7,11.1 56.3,11 56.8,10.7 57.2,10.3 57.3,9.7 57.3,9.6 57.2,9.4 57.1,9.3 56.9,9.3 56.8,9.3 56.7,9.4 56.6,9.5 
	56.5,9.6 56.4,9.9 56.2,10.1 56,10.2 55.7,10.3 55.6,10.3 55.3,10.2 55,10.1 54.9,9.8 54.8,9.5 54.8,6.8 54.9,6.5 55,6.2 55.3,6.1 
	55.6,6 "/>
<polygon points="57.1,201.2 57,201.2 56.9,201.2 56.7,201.3 56.6,201.5 56.6,201.6 56.6,206.7 56.6,206.9 56.7,207 56.9,207.1 
	57,207.1 57.1,207.1 57.3,207 57.4,206.9 57.4,206.7 57.4,203.1 59,206.8 59.1,207 59.3,207.1 59.4,207.1 59.5,207.1 59.6,207.1 
	59.7,207.1 59.9,207 60,206.8 60,206.7 60,201.5 60,201.3 59.8,201.2 59.7,201.2 59.5,201.2 59.4,201.2 59.2,201.3 59.1,201.4 
	59.1,201.6 59.1,205.2 57.5,201.5 57.4,201.3 57.3,201.2 57.2,201.2 57.1,201.2 "/>
<polygon points="57.6,241.1 57.6,246.3 57.6,246.5 57.7,246.6 57.9,246.7 58,246.7 58.1,246.7 58.3,246.6 58.4,246.5 58.4,246.3 
	58.4,241.1 58.4,240.9 58.3,240.8 58.1,240.7 58,240.7 57.9,240.7 57.7,240.8 57.6,240.9 57.6,241.1 "/>
<polygon points="61.2,289.8 59.7,289.9 58.3,290.1 56.9,290.4 55.6,290.9 54.3,291.5 53.1,292.2 52,293.1 51,294 50.1,295 
	49.2,296.1 48.5,297.3 47.9,298.6 47.4,299.9 47.1,301.3 46.9,302.7 46.8,304.2 46.8,325.3 46.8,325.5 46.8,325.8 46.9,326 
	47,326.2 47.1,326.4 47.2,326.6 47.3,326.8 47.5,326.9 47.6,327.1 47.8,327.2 48,327.3 48.2,327.4 48.4,327.5 48.6,327.6 
	48.9,327.6 49.1,327.6 64.4,327.6 64.4,325.9 60.5,325.9 60.5,319.5 53.6,319.5 53.6,325.3 53.6,325.4 53.6,325.4 53.6,325.5 
	53.5,325.5 53.5,325.6 53.5,325.6 53.5,325.7 53.4,325.7 53.4,325.8 53.3,325.8 53.3,325.8 53.2,325.8 53.2,325.9 53.1,325.9 
	53.1,325.9 53,325.9 52.9,325.9 52.9,325.9 52.8,325.9 52.8,325.8 52.7,325.8 52.7,325.8 52.6,325.8 52.6,325.7 52.5,325.7 
	52.5,325.6 52.5,325.6 52.5,325.5 52.4,325.5 52.4,325.4 52.4,325.4 52.4,325.3 52.4,318.3 61,318.3 61,318.3 61,318.3 61.1,318.3 
	61.1,318.3 61.1,318.3 61.1,318.3 61.2,318.3 61.2,318.4 61.2,318.4 61.3,318.4 61.3,318.4 61.3,318.4 61.3,318.4 61.4,318.5 
	61.4,318.5 61.4,318.5 61.4,318.5 61.5,318.6 61.5,318.6 61.5,318.6 61.5,318.6 61.5,318.6 61.5,318.7 61.6,318.7 61.6,318.7 
	61.6,318.7 61.6,318.8 61.6,318.8 61.6,318.8 61.6,318.9 61.6,318.9 61.6,318.9 61.6,319 61.6,319 61.6,319 61.6,319 61.6,319 
	61.6,319 61.6,319.1 61.6,319.1 61.6,319.1 61.6,319.1 61.5,319.1 61.5,319.2 61.5,319.2 61.5,319.2 61.5,324.8 63.9,324.8 
	63.9,324.8 63.9,324.8 64,324.8 64,324.7 64,324.7 64,324.7 64,324.7 64,324.7 64.1,324.7 64.1,324.7 64.1,324.7 64.1,324.7 
	64.1,324.7 64.2,324.7 64.2,324.7 64.2,324.7 64.2,324.7 64.2,324.7 64.2,324.7 64.2,324.7 64.2,324.7 64.2,324.7 64.2,323.8 
	64.2,323.8 64.2,323.8 64.1,323.8 64.1,323.7 64.1,323.7 64.1,323.7 64,323.7 64,323.6 64,323.6 64,323.6 63.9,323.6 63.9,323.5 
	63.9,323.5 63.9,323.5 63.9,323.4 63.9,323.4 63.9,323 63.9,323 63.9,322.9 63.9,322.9 63.9,322.9 63.9,322.8 64,322.8 64,322.8 
	64,322.8 64,322.7 64.1,322.7 64.1,322.7 64.1,322.7 64.1,322.6 64.2,322.6 64.2,322.6 64.2,322.6 64.2,321.7 64.2,321.6 
	64.2,321.6 64.2,321.6 64.1,321.6 64.1,321.6 64.1,321.6 64.1,321.5 64.1,321.5 64.1,321.5 64,321.5 64,321.4 64,321.4 64,321.4 
	64,321.4 64,321.3 64,321.3 64,320.9 64,320.9 64,320.8 64,320.8 64,320.8 64,320.8 64,320.7 64.1,320.7 64.1,320.7 64.1,320.7 
	64.1,320.6 64.1,320.6 64.1,320.6 64.2,320.6 64.2,320.6 64.2,320.6 64.2,320.5 64.2,319.7 64.2,319.7 64.2,319.7 64.2,319.7 
	64.1,319.7 64.1,319.6 64.1,319.6 64.1,319.6 64,319.6 64,319.6 64,319.6 64,319.5 64,319.5 64,319.5 63.9,319.5 63.9,319.4 
	63.9,319.4 63.9,319.4 63.8,319.3 63.8,319.3 63.8,319.3 63.7,319.3 63.7,319.2 63.7,319.2 63.7,319.2 63.7,319.2 63.7,319.1 
	63.7,319.1 63.7,319.1 63.7,319 63.3,319 63.3,319.1 63.3,319.1 63.3,319.1 63.2,319.2 63.2,319.2 63.2,319.2 63.2,319.3 
	63.2,319.3 63.1,319.3 63.1,319.3 63.1,319.4 63,319.4 63,319.4 63,319.4 62.9,319.4 62.9,319.4 62.6,319.4 62.5,319.4 62.5,319.4 
	62.5,319.4 62.4,319.4 62.4,319.3 62.3,319.3 62.3,319.3 62.3,319.3 62.3,319.2 62.2,319.2 62.2,319.2 62.2,319.1 62.2,319.1 
	62.2,319.1 62.2,319 62.2,319 62.2,319 62.2,318.9 62.2,318.9 62.2,318.9 62.3,318.8 62.3,318.8 62.3,318.8 62.3,318.7 62.4,318.7 
	62.4,318.7 62.4,318.7 62.5,318.6 62.5,318.6 62.5,318.6 62.6,318.6 62.6,318.6 62.9,318.6 62.9,318.6 63,318.6 63,318.6 63,318.6 
	63.1,318.7 63.1,318.7 63.1,318.7 63.2,318.7 63.2,318.8 63.2,318.8 63.2,318.8 63.3,318.9 63.3,318.9 63.3,318.9 63.3,319 
	63.3,319 63.3,319 63.3,319 63.3,319 63.3,319 63.3,319 63.3,319 63.3,319 63.3,319 63.3,319 63.3,319 63.3,319 63.3,319 63.7,319 
	63.7,319 63.7,319 63.7,319 63.7,319 63.7,319 63.7,319 63.7,319 63.7,319 63.7,319 63.7,319 63.7,319 63.7,319 63.7,319 63.7,319 
	63.7,319 63.7,318.9 63.7,318.9 63.7,318.9 63.8,318.8 63.8,318.8 63.8,318.8 63.8,318.7 63.9,318.7 63.9,318.7 63.9,318.7 
	64,318.6 64,318.6 64,318.6 64.1,318.6 64.1,318.6 64.3,318.6 64.3,318.6 64.4,318.6 64.4,318.6 64.4,318.6 64.5,318.7 64.5,318.7 
	64.5,318.7 64.6,318.7 64.6,318.8 64.6,318.8 64.6,318.8 64.7,318.9 64.7,318.9 64.7,318.9 64.7,319 64.7,319 64.7,319.3 
	64.7,319.3 64.7,319.4 64.7,319.4 64.7,319.4 64.6,319.5 64.6,319.5 64.6,319.5 64.6,319.6 64.5,319.6 64.5,319.6 64.5,319.6 
	64.4,319.7 64.4,319.7 64.4,319.7 64.3,319.7 64.3,319.7 64.3,319.7 64.3,319.7 64.3,319.7 64.3,319.7 64.3,319.7 64.3,319.7 
	64.3,319.7 64.3,319.7 64.3,319.7 64.3,319.7 64.3,319.7 64.3,319.7 64.3,319.7 64.3,319.7 64.3,320.5 64.3,320.5 64.3,320.5 
	64.3,320.5 64.3,320.5 64.3,320.5 64.3,320.5 64.3,320.5 64.3,320.5 64.3,320.5 64.3,320.5 64.4,320.5 64.4,320.5 64.4,320.5 
	64.4,320.5 64.4,320.5 64.4,320.5 64.4,320.5 64.5,320.5 64.5,320.5 64.5,320.5 64.6,320.6 64.6,320.6 64.6,320.6 64.7,320.6 
	64.7,320.7 64.7,320.7 64.7,320.7 64.8,320.8 64.8,320.8 64.8,320.8 64.8,320.9 64.8,320.9 64.8,321.3 64.8,321.3 64.8,321.4 
	64.8,321.4 64.8,321.4 64.7,321.5 64.7,321.5 64.7,321.5 64.7,321.6 64.6,321.6 64.6,321.6 64.6,321.6 64.5,321.7 64.5,321.7 
	64.5,321.7 64.4,321.7 64.4,321.7 64.4,321.7 64.4,321.7 64.4,321.7 64.4,321.7 64.4,321.7 64.3,321.7 64.3,321.7 64.3,321.7 
	64.3,321.7 64.3,321.7 64.3,321.7 64.3,321.7 64.3,321.7 64.3,321.7 64.3,321.7 64.3,321.7 64.3,322.6 64.3,322.6 64.3,322.6 
	64.3,322.6 64.3,322.6 64.3,322.6 64.3,322.6 64.3,322.6 64.3,322.6 64.3,322.6 64.3,322.6 64.3,322.6 64.4,322.6 64.4,322.6 
	64.5,322.6 64.5,322.6 64.5,322.7 64.6,322.7 64.6,322.7 64.6,322.7 64.7,322.8 64.7,322.8 64.7,322.8 64.7,322.9 64.7,322.9 
	64.7,322.9 64.7,323 64.7,323 64.7,323.4 64.7,323.4 64.7,323.5 64.7,323.5 64.7,323.5 64.6,323.6 64.6,323.6 64.6,323.6 
	64.6,323.7 64.5,323.7 64.5,323.7 64.5,323.7 64.4,323.8 64.4,323.8 64.4,323.8 64.3,323.8 64.3,323.8 64.3,323.8 64.3,323.8 
	64.3,323.8 64.3,323.8 64.3,323.8 64.3,323.8 64.3,323.8 64.3,323.8 64.3,323.8 64.3,323.8 64.3,323.8 64.3,324.7 64.3,324.7 
	64.3,324.7 64.3,324.7 64.3,324.7 64.3,324.7 64.3,324.7 64.4,324.7 64.4,324.7 64.4,324.7 64.4,324.7 64.4,324.7 64.4,324.8 
	64.5,324.8 64.5,324.8 64.5,324.8 64.5,324.8 68.5,324.8 68.5,319 68.5,318.9 68.5,318.9 68.5,318.8 68.6,318.8 68.6,318.7 
	68.6,318.7 68.6,318.6 68.7,318.6 68.7,318.5 68.8,318.5 68.8,318.5 68.9,318.5 68.9,318.4 69,318.4 69,318.4 69.1,318.4 
	69.2,318.4 69.2,318.4 69.3,318.4 69.3,318.4 69.4,318.5 69.4,318.5 69.5,318.5 69.5,318.6 69.6,318.6 69.6,318.7 69.6,318.7 
	69.6,318.7 69.7,318.8 69.7,318.8 69.7,318.9 69.7,318.9 69.7,325.9 64.4,325.9 64.4,327.6 73.3,327.6 73.5,327.6 73.8,327.6 
	74,327.5 74.2,327.4 74.4,327.3 74.6,327.2 74.8,327.1 74.9,326.9 75.1,326.8 75.2,326.6 75.3,326.4 75.4,326.2 75.5,326 
	75.6,325.8 75.6,325.5 75.6,325.3 75.6,304.2 75.5,302.7 75.3,301.3 75,299.9 74.5,298.6 73.9,297.3 73.2,296.1 72.3,295 71.4,294 
	70.4,293.1 69.3,292.2 68.1,291.5 66.8,290.9 65.5,290.4 64.1,290.1 62.7,289.9 61.2,289.8 "/>
<polygon points="25.1,289.8 23.6,289.9 22.2,290.1 20.8,290.4 19.5,290.9 18.2,291.5 17,292.2 15.9,293.1 14.9,294 14,295 
	13.1,296.1 12.4,297.3 11.8,298.6 11.3,299.9 11,301.3 10.8,302.7 10.7,304.2 10.7,325.3 10.7,325.5 10.7,325.8 10.8,326 
	10.9,326.2 11,326.4 11.1,326.6 11.2,326.8 11.4,326.9 11.5,327.1 11.7,327.2 11.9,327.3 12.1,327.4 12.3,327.5 12.5,327.6 
	12.8,327.6 13,327.6 25.4,327.6 25.4,324.9 19.5,320.2 19.5,325.4 19.5,325.5 19.5,325.5 19.5,325.6 19.4,325.6 19.4,325.7 
	19.4,325.7 19.4,325.8 19.3,325.8 19.3,325.9 19.2,325.9 19.2,325.9 19.1,325.9 19.1,326 19,326 19,326 18.9,326 18.8,326 18.8,326 
	18.7,326 18.7,325.9 18.6,325.9 18.6,325.9 18.5,325.9 18.5,325.8 18.4,325.8 18.4,325.7 18.4,325.7 18.4,325.6 18.3,325.6 
	18.3,325.5 18.3,325.5 18.3,325.4 18.3,319 18.3,319 18.3,318.9 18.3,318.9 18.3,318.9 18.3,318.8 18.3,318.8 18.4,318.7 
	18.4,318.7 18.4,318.7 18.4,318.6 18.4,318.6 18.5,318.6 18.5,318.6 18.5,318.5 18.6,318.5 18.6,318.5 18.6,318.5 18.7,318.5 
	18.7,318.5 18.7,318.5 18.8,318.5 18.8,318.5 18.9,318.5 18.9,318.5 18.9,318.5 19,318.5 19,318.5 19.1,318.5 19.1,318.5 
	19.2,318.6 26.2,324.2 26.2,319 26.2,319 26.2,318.9 26.2,318.9 26.2,318.9 26.3,318.8 26.3,318.8 26.3,318.7 26.3,318.7 
	26.4,318.7 26.4,318.6 26.4,318.6 26.5,318.6 26.5,318.6 26.5,318.5 26.6,318.5 26.6,318.5 26.6,318.5 26.7,318.5 26.7,318.5 
	26.7,318.4 26.8,318.4 26.8,318.4 26.9,318.4 26.9,318.4 26.9,318.4 27,318.5 27,318.5 27.1,318.5 27.1,318.5 27.1,318.5 
	27.2,318.6 27.2,318.6 33.6,324.9 33.6,324.9 33.7,325 33.7,325 33.7,325.1 33.7,325.1 33.7,325.2 33.7,325.2 33.7,325.3 
	33.7,325.4 33.7,325.4 33.7,325.5 33.7,325.5 33.7,325.6 33.7,325.6 33.6,325.7 33.6,325.7 33.6,325.7 33.5,325.8 33.5,325.8 
	33.4,325.8 33.4,325.8 33.3,325.8 33.3,325.8 33.2,325.8 33.1,325.8 33.1,325.8 33,325.8 33,325.8 32.9,325.8 32.9,325.8 
	32.8,325.7 32.8,325.7 27.4,320.3 27.4,325.3 27.4,325.3 27.4,325.4 27.4,325.4 27.4,325.4 27.4,325.5 27.4,325.5 27.3,325.6 
	27.3,325.6 27.3,325.6 27.3,325.7 27.3,325.7 27.2,325.7 27.2,325.7 27.2,325.8 27.1,325.8 27.1,325.8 27.1,325.8 27.1,325.8 
	27.1,325.8 27.1,325.9 27.1,325.9 27.1,325.9 27.1,325.9 27,325.9 27,325.9 27,325.9 27,325.9 27,325.9 27,325.9 26.8,325.9 
	26.8,325.9 26.7,325.9 26.7,325.9 26.7,325.9 26.7,325.9 26.6,325.9 26.6,325.9 26.6,325.9 26.6,325.9 26.6,325.8 26.5,325.8 
	26.5,325.8 26.5,325.8 25.4,324.9 25.4,327.6 37.2,327.6 37.4,327.6 37.7,327.6 37.9,327.5 38.1,327.4 38.3,327.3 38.5,327.2 
	38.7,327.1 38.8,326.9 39,326.8 39.1,326.6 39.2,326.4 39.3,326.2 39.4,326 39.5,325.8 39.5,325.5 39.5,325.3 39.5,304.2 
	39.4,302.7 39.2,301.3 38.9,299.9 38.4,298.6 37.8,297.3 37.1,296.1 36.2,295 35.3,294 34.3,293.1 33.2,292.2 32,291.5 30.7,290.9 
	29.4,290.4 28,290.1 26.6,289.9 25.1,289.8 "/>
<polygon points="25.1,250.2 23.6,250.3 22.2,250.5 20.8,250.8 19.5,251.3 18.2,251.9 17,252.6 15.9,253.5 14.9,254.4 14,255.4 
	13.1,256.5 12.4,257.7 11.8,259 11.3,260.3 11,261.7 10.8,263.1 10.7,264.6 10.7,285.7 10.7,285.9 10.7,286.2 10.8,286.4 
	10.9,286.6 11,286.8 11.1,287 11.2,287.2 11.4,287.3 11.5,287.5 11.7,287.6 11.9,287.7 12.1,287.8 12.3,287.9 12.5,288 12.8,288 
	13,288 28,288 28,285.8 22.6,280.7 17.6,285.4 17.6,285.4 17.4,285.5 17.3,285.5 17.3,285.6 17.3,285.6 17.3,285.6 17.2,285.6 
	17.2,285.6 17.2,285.6 17.1,285.6 17.1,285.6 17,285.6 17,285.6 16.9,285.6 16.9,285.6 16.9,285.6 16.9,285.6 16.8,285.6 
	16.8,285.6 16.8,285.6 16.8,285.6 16.8,285.5 16.7,285.5 16.7,285.5 16.7,285.5 16.6,285.5 16.6,285.5 16.6,285.4 16.5,285.4 
	16.5,285.4 16.5,285.3 16.5,285.3 16.5,285.2 16.5,285.2 16.5,285.2 16.5,285.1 16.5,285.1 16.5,285 16.5,285 16.6,284.9 
	16.6,284.9 22.5,279.4 27.9,284.5 32.9,279.8 33,279.7 33,279.7 33.1,279.7 33.1,279.6 33.2,279.6 33.2,279.6 33.3,279.6 
	33.4,279.6 33.4,279.6 33.5,279.6 33.5,279.6 33.6,279.6 33.6,279.6 33.7,279.7 33.7,279.7 33.7,279.7 33.8,279.8 33.8,279.8 
	33.8,279.9 33.8,279.9 33.9,280 33.9,280 33.9,280 33.9,280.1 33.9,280.1 33.9,280.2 33.9,280.2 33.9,280.2 33.9,280.3 33.9,280.3 
	28,285.8 28,288 37.2,288 37.4,288 37.7,288 37.9,287.9 38.1,287.8 38.3,287.7 38.5,287.6 38.7,287.5 38.8,287.3 39,287.2 39.1,287 
	39.2,286.8 39.3,286.6 39.4,286.4 39.5,286.2 39.5,285.9 39.5,285.7 39.5,264.6 39.4,263.1 39.2,261.7 38.9,260.3 38.4,259 
	37.8,257.7 37.1,256.5 36.2,255.4 35.3,254.4 34.3,253.5 33.2,252.6 32,251.9 30.7,251.3 29.4,250.8 28,250.5 26.6,250.3 
	25.1,250.2 "/>
<polygon points="61.1,250.2 59.6,250.3 58.2,250.5 56.8,250.8 55.5,251.3 54.2,251.9 53,252.6 51.9,253.5 50.9,254.4 50,255.4 
	49.1,256.5 48.4,257.7 47.8,259 47.3,260.3 47,261.7 46.8,263.1 46.7,264.6 46.7,285.7 46.7,285.9 46.7,286.2 46.8,286.4 
	46.9,286.6 47,286.8 47.1,287 47.2,287.2 47.4,287.3 47.5,287.5 47.7,287.6 47.9,287.7 48.1,287.8 48.3,287.9 48.5,288 48.8,288 
	49,288 65,288 65,286.3 64.7,286.3 64.4,286.2 64.1,286.1 63.8,286 63.5,285.9 63.2,285.7 62.9,285.5 62.6,285.3 62.3,285.1 
	62.1,284.8 61.8,284.5 61.6,284.2 61.3,283.9 61.1,283.6 60.9,283.2 60.7,282.8 60.5,282.5 60.3,282.1 60.2,281.8 60,281.5 
	59.8,281.3 59.6,281 59.4,280.8 59.1,280.6 58.9,280.5 58.7,280.3 58.5,280.2 58.2,280.1 58,280 57.7,279.9 57.5,279.9 57.2,279.9 
	56.9,279.9 56.7,280 56.4,280 56.2,280.1 55.9,280.2 55.7,280.3 55.5,280.5 55.3,280.7 55,280.9 54.8,281.1 54.6,281.3 54.4,281.6 
	54.2,281.9 54.1,282.2 53.9,282.5 53.7,282.8 53.7,282.9 53.6,282.9 53.6,282.9 53.5,283 53.5,283 53.4,283.1 53.4,283.1 
	53.3,283.1 53.3,283.1 53.2,283.1 53.2,283.1 53.1,283.1 53.1,283.1 53,283.1 53,283.1 52.9,283.1 52.8,283.1 52.8,283 52.8,283 
	52.7,283 52.7,282.9 52.6,282.9 52.6,282.8 52.6,282.8 52.6,282.7 52.6,282.7 52.6,282.6 52.6,282.5 52.6,282.5 52.6,282.4 
	52.6,282.4 52.6,282.3 52.8,281.9 53,281.5 53.2,281.2 53.5,280.8 53.7,280.5 54,280.2 54.3,280 54.5,279.7 54.8,279.5 55.1,279.3 
	55.5,279.2 55.8,279 56.1,278.9 56.4,278.9 56.8,278.8 57.1,278.8 57.4,278.8 57.8,278.9 58.1,278.9 58.4,279 58.7,279.2 59,279.3 
	59.3,279.5 59.6,279.7 59.9,280 60.2,280.2 60.4,280.5 60.7,280.8 60.9,281.2 61.2,281.5 61.4,281.9 61.6,282.3 61.8,282.6 62,283 
	62.1,283.3 62.3,283.6 62.5,283.8 62.7,284.1 62.9,284.3 63.2,284.5 63.4,284.6 63.6,284.8 63.8,284.9 64.1,285 64.3,285.1 
	64.6,285.2 64.8,285.2 65.1,285.2 65.4,285.2 65.6,285.1 65.9,285.1 66.1,285 66.4,284.9 66.6,284.8 66.8,284.6 67,284.4 
	67.3,284.2 67.5,284 67.7,283.8 67.9,283.5 68.1,283.2 68.2,282.9 68.4,282.6 68.6,282.3 68.6,282.2 68.7,282.2 68.7,282.2 
	68.8,282.1 68.8,282.1 68.9,282 68.9,282 69,282 69,282 69.1,282 69.1,282 69.2,282 69.2,282 69.3,282 69.3,282 69.4,282 69.5,282 
	69.5,282.1 69.5,282.1 69.6,282.2 69.6,282.2 69.7,282.3 69.7,282.3 69.7,282.4 69.7,282.4 69.7,282.5 69.7,282.5 69.7,282.6 
	69.7,282.6 69.7,282.7 69.7,282.7 69.7,282.8 69.5,283.2 69.3,283.6 69.1,283.9 68.8,284.3 68.6,284.6 68.3,284.9 68,285.1 
	67.8,285.4 67.5,285.6 67.2,285.8 66.8,285.9 66.5,286.1 66.2,286.2 65.9,286.2 65.5,286.3 65.2,286.3 65.2,286.3 65.2,286.3 
	65.2,286.3 65.2,286.3 65.1,286.3 65.1,286.3 65.1,286.3 65.1,286.3 65.1,288 73.2,288 73.4,288 73.7,288 73.9,287.9 74.1,287.8 
	74.3,287.7 74.5,287.6 74.7,287.5 74.8,287.3 75,287.2 75.1,287 75.2,286.8 75.3,286.6 75.4,286.4 75.5,286.2 75.5,285.9 
	75.5,285.7 75.5,264.6 75.4,263.1 75.2,261.7 74.9,260.3 74.4,259 73.8,257.7 73.1,256.5 72.2,255.4 71.3,254.4 70.3,253.5 
	69.2,252.6 68,251.9 66.7,251.3 65.4,250.8 64,250.5 62.6,250.3 61.1,250.2 "/>
<polygon points="61.5,240.7 60.2,240.7 60.1,240.7 59.9,240.8 59.8,241 59.8,241.1 59.8,245.8 60.6,245.8 60.6,241.5 61.5,241.5 
	61.8,241.6 62.1,241.7 62.2,242 62.3,242.3 62.3,244.9 62.2,245.3 62.1,245.5 61.8,245.7 61.5,245.8 59.8,245.8 59.8,246.3 
	59.8,246.4 59.9,246.6 60.1,246.7 60.2,246.7 61.5,246.7 62.2,246.6 62.7,246.2 63.1,245.7 63.2,245 63.2,242.4 63.1,241.7 
	62.7,241.2 62.1,240.8 61.5,240.7 "/>
<polygon points="26.7,202.5 26.5,202.5 25.9,202.6 25.4,202.9 25,203.4 24.9,204 24.9,206.6 25,207.2 25.4,207.6 25.9,208 
	26.5,208.1 26.5,207.3 26.2,207.2 26,207.1 25.8,206.9 25.7,206.6 25.7,204 25.8,203.7 25.9,203.4 26.2,203.3 26.5,203.2 
	26.6,203.2 26.9,203.3 27.2,203.4 27.3,203.7 27.4,204 27.4,206.5 27.3,206.8 27.1,207.1 26.9,207.2 26.5,207.3 26.5,208.1 
	26.7,208.1 27.3,208 27.8,207.7 28.2,207.2 28.3,206.6 28.3,204 28.2,203.4 27.8,202.9 27.3,202.6 26.7,202.5 "/>
<polygon points="75.9,5.2 75.8,5.2 75.2,5.3 74.8,5.6 74.5,6 74.4,6.6 74.4,9.8 74.5,10.4 74.8,10.8 75.2,11.1 75.8,11.2 75.8,10.4 
	75.6,10.3 75.4,10.2 75.2,10 75.2,9.8 75.2,6.6 75.3,6.3 75.4,6.1 75.6,6 75.8,6 75.9,6 76.1,6.1 76.3,6.2 76.4,6.4 76.5,6.6 
	76.5,9.8 76.4,10 76.3,10.2 76.1,10.3 75.8,10.4 75.8,11.2 75.9,11.2 76.5,11.1 76.9,10.8 77.2,10.4 77.3,9.8 77.3,6.6 77.2,6 
	76.9,5.6 76.5,5.3 75.9,5.2 "/>
<polygon points="60,5.2 59.9,5.2 59.2,5.3 58.7,5.7 58.3,6.2 58.2,6.8 58.2,9.5 58.3,10.1 58.7,10.6 59.2,11 59.8,11.1 59.8,10.4 
	59.8,10.4 59.8,10.4 59.8,10.4 59.5,10.3 59.3,10.1 59.1,9.9 59,9.5 59,6.8 59.1,6.5 59.3,6.2 59.5,6.1 59.8,6 59.9,6 60.2,6.1 
	60.5,6.2 60.6,6.5 60.7,6.8 60.7,9.6 60.6,9.9 60.5,10.1 60.2,10.3 59.9,10.4 59.9,11.1 59.9,11.1 59.9,11.1 59.9,11.1 60,11.1 
	60.7,11 61.2,10.6 61.6,10.1 61.7,9.5 61.7,6.8 61.6,6.2 61.2,5.7 60.6,5.3 60,5.2 "/>
</svg>
